:SAMPLES-PER-SECOND 30
:FULLY-SPECIFIED
:DEGREES
198
root  36.0812 38.6006 1.61399 -14.4993 79.6346 -17.2617
RightUpLeg  -23.4197 -9.56952 -0.581553
RightLeg  53.0473 -7.85516 -11.412
RightFoot  -5.75635 -0.0282447 -0.212388
RightToes  0.00048216 0.542163 -0.142577
Spine  50.6631 -3.71634 6.80105
Spine1  11.8666 2.18181 -8.82199
HEad  -3.79829 31.6117 -28.4854
LeftShoulder1  11.6601 -18.0932 -47.099
LeftArm  -10.5516 0.989002 -13.6897
LeftForeArm  12.6073 -7.05451 -6.36997
LeftHand  -0.25398 0.0180481 5.50724
RightShoulder  7.43378 14.3192 35.7103
RightArm  8.09387 8.89583 28.7671
RightForeArm  -12.3951 15.7994 8.3131
RightHand  -2.66143 7.09679 -24.7792
LeftUpLeg  -25.7867 18.1519 -0.811901
LeftLeg  8.5978 7.75826 -5.90532
LeftFoot  13.4069 -2.36852 10.3886
LeftToes  1.06246e-005 4.65856e-005 -8.18501e-006
199
root  35.4593 38.4159 1.67163 -14.2969 80.4806 -15.2
RightUpLeg  -18.1234 -8.59983 -1.02416
RightLeg  56.0731 -5.60564 -9.32711
RightFoot  -7.8608 -0.0791533 0.876115
RightToes  0.00048216 0.542163 -0.142577
Spine  47.4415 -3.38218 6.58044
Spine1  12.1838 2.32801 -9.32874
HEad  0.410386 35.7205 -27.5799
LeftShoulder1  11.3342 -17.3429 -47.4426
LeftArm  -8.82831 10.4361 -11.5531
LeftForeArm  12.6953 -8.54035 -6.12675
LeftHand  -0.25398 0.0180481 5.50724
RightShoulder  7.34706 13.6714 36.7596
RightArm  11.2568 2.46022 29.9955
RightForeArm  -14.7245 18.0282 7.38154
RightHand  -2.76996 7.40468 -25.1553
LeftUpLeg  -24.2859 16.6385 -0.327364
LeftLeg  7.68412 8.94429 -6.37278
LeftFoot  14.6197 -2.44635 10.1924
LeftToes  1.06246e-005 4.65856e-005 -8.18501e-006
200
root  34.7878 38.1682 1.7601 -15.7401 81.2998 -14.6751
RightUpLeg  -12.2139 -8.03428 -0.771354
RightLeg  57.1292 -3.55659 -6.37968
RightFoot  -9.08202 -0.120546 2.87232
RightToes  0.00048216 0.542163 -0.142577
Spine  44.4696 -2.95801 6.47001
Spine1  12.4623 2.61518 -9.67845
HEad  4.11226 39.0461 -25.8325
LeftShoulder1  10.8207 -16.5785 -47.0156
LeftArm  -6.52449 19.097 -9.54808
LeftForeArm  11.9169 -10.0907 -5.938
LeftHand  -0.25398 0.0180481 5.50724
RightShoulder  7.16898 12.9788 37.4582
RightArm  13.4793 -3.39754 31.1331
RightForeArm  -16.2292 20.1474 6.50553
RightHand  -2.85296 7.62448 -25.4626
LeftUpLeg  -23.5777 17.1677 -0.660904
LeftLeg  8.07616 7.78835 -6.16958
LeftFoot  15.4023 -2.47816 9.99723
LeftToes  1.06246e-005 4.65856e-005 -8.18501e-006
201
root  34.0536 37.8716 1.84731 -16.9194 81.9504 -13.777
RightUpLeg  -5.93692 -7.76022 -0.383822
RightLeg  56.1098 -1.56857 -2.97653
RightFoot  -9.26377 -0.17302 6.05356
RightToes  0.00048216 0.542163 -0.142577
Spine  41.5007 -2.34679 6.17858
Spine1  13.0877 3.02837 -9.79598
HEad  7.65231 41.7432 -23.6005
LeftShoulder1  10.1807 -15.6437 -46.3808
LeftArm  -4.08097 26.7156 -7.52132
LeftForeArm  10.3753 -11.4132 -5.74061
LeftHand  -0.25398 0.0180481 5.50724
RightShoulder  6.88676 12.2807 37.5927
RightArm  14.7168 -8.25027 32.3389
RightForeArm  -16.4364 21.7032 5.99698
RightHand  -2.75436 7.29744 -25.2176
LeftUpLeg  -22.9863 17.4674 -0.915373
LeftLeg  8.69999 6.7663 -5.78907
LeftFoot  16.0109 -2.50086 9.84278
LeftToes  1.06246e-005 4.65856e-005 -8.18501e-006
202
root  33.2514 37.5494 1.88814 -12.0929 82.1965 -7.63386
RightUpLeg  -0.710148 -7.43826 -0.551762
RightLeg  53.2253 -0.0532893 -0.477964
RightFoot  -10.6699 -0.119394 8.84933
RightToes  0.00048216 0.542163 -0.142577
Spine  37.2994 -1.37596 5.42062
Spine1  14.1292 3.58936 -9.83156
HEad  11.7222 44.1148 -20.8681
LeftShoulder1  9.26608 -14.4599 -44.9398
LeftArm  -3.68182 33.749 -6.81179
LeftForeArm  9.15734 -12.4958 -5.05152
LeftHand  -0.25398 0.0180481 5.50724
RightShoulder  6.59969 11.6905 37.4089
RightArm  15.1007 -12.0566 33.4867
RightForeArm  -15.5094 22.6881 5.7905
RightHand  -2.42296 6.27535 -24.1517
LeftUpLeg  -22.5232 14.9301 -0.763367
LeftLeg  7.84332 9.441 -5.7436
LeftFoot  17.3144 -2.57744 9.65048
LeftToes  1.06246e-005 4.65856e-005 -8.18501e-006
203
root  32.3765 37.2924 1.86625 -2.0321 81.6506 2.60143
RightUpLeg  2.57121 -6.93596 -1.06113
RightLeg  48.8939 -0.0927856 -0.432601
RightFoot  -15.5826 0.214647 8.96789
RightToes  0.00048216 0.542163 -0.142577
Spine  31.7711 -0.139901 4.62296
Spine1  15.083 4.45696 -10.019
HEad  16.4312 46.136 -17.5611
LeftShoulder1  8.08786 -13.0583 -42.4152
LeftArm  -6.45957 40.4052 -8.21667
LeftForeArm  8.06079 -13.865 -3.83824
LeftHand  -0.25398 0.0180481 5.50724
RightShoulder  6.40578 11.2699 37.3372
RightArm  14.4654 -15.0992 34.2082
RightForeArm  -13.8553 23.654 5.74793
RightHand  -2.03438 5.00689 -22.7952
LeftUpLeg  -22.0539 9.89286 -0.0457417
LeftLeg  4.5522 16.107 -6.51344
LeftFoot  18.8502 -2.33917 8.24686
LeftToes  1.06246e-005 4.65856e-005 -8.18501e-006
